<?xml version="1.0" encoding="utf-8" ?>	<!-- Generator: Assembly 2.4 - http://assemblyapp.co -->	<svg version="1.1" xmlns="http://www.w3.org/2000/svg" xmlns:xlink="http://www.w3.org/1999/xlink" width="4096.00" height="4096.00" viewBox="0 0 4096.0 4096.0">		<g id="document" transform="scale(1.0 1.0) translate(2048.0 2048.0)">			<g>				<path d="M-1438.54,326.078 C-1284.95,326.078 -1129.58,297.504 -1129.58,297.504 L-1143.86,118.914 C-1143.86,118.914 -1274.24,142.131 -1411.75,142.131 C-1631.41,142.131 -1702.85,76.0527 -1702.85,-11.4561 C-1702.85,-118.61 -1551.05,-181.116 -1386.75,-261.481 C-1284.95,-184.688 -1161.72,-129.325 -990.278,-129.325 L-845.621,-129.325 L-845.621,-315.058 L-963.49,-315.058 C-1047.43,-315.058 -1118.86,-338.275 -1183.15,-372.207 C-1068.86,-450.786 -979.563,-552.582 -979.563,-704.383 C-979.563,-859.756 -1090.29,-997.269 -1356.39,-997.269 C-1533.19,-997.269 -1731.42,-900.831 -1872.51,-799.035 L-1892.15,-631.161 C-1745.71,-590.086 -1642.13,-490.076 -1534.98,-388.28 C-1731.42,-300.771 -1943.95,-206.118 -1943.95,11.7606 C-1943.95,183.206 -1799.29,326.078 -1438.54,326.078 Z M-1654.63,-716.884 C-1590.34,-759.746 -1479.61,-824.038 -1383.17,-824.038 C-1268.88,-824.038 -1213.51,-757.96 -1213.51,-674.023 C-1213.51,-593.657 -1267.09,-536.509 -1343.89,-486.504 C-1443.9,-574.013 -1538.55,-670.451 -1654.63,-716.884 Z M-872.409,-129.325 L-659.888,-129.325 L-659.888,-315.058 L-872.409,-315.058 L-872.409,-129.325 Z M-679.533,-129.325 L-467.011,-129.325 L-467.011,-315.058 L-679.533,-315.058 L-679.533,-129.325 Z M-486.656,-129.325 L-274.135,-129.325 L-274.135,-315.058 L-486.656,-315.058 L-486.656,-129.325 Z M-293.78,-129.325 L367.001,-129.325 L367.001,-315.058 L191.984,-315.058 L191.984,-968.695 L-43.7544,-968.695 L-43.7544,-315.058 L-293.78,-315.058 L-293.78,-129.325 Z M-58.0415,261.786 C9.82242,261.786 65.1851,206.423 65.1851,138.559 C65.1851,68.9092 9.82242,15.3324 -58.0415,15.3324 C-125.906,15.3324 -181.268,70.6951 -181.268,138.559 C-181.268,208.209 -125.906,261.786 -58.0415,261.786 Z M340.213,-129.325 L552.734,-129.325 L552.734,-315.058 L340.213,-315.058 L340.213,-129.325 Z M533.089,-129.325 L1177.8,-129.325 L1177.8,-315.058 L1018.85,-315.058 L1018.85,-968.695 L783.114,-968.695 L783.114,-315.058 L533.089,-315.058 L533.089,-129.325 Z M718.822,-1104.42 C786.686,-1104.42 838.477,-1159.79 838.477,-1225.86 C838.477,-1293.73 786.686,-1347.3 718.822,-1347.3 C652.744,-1347.3 600.953,-1291.94 600.953,-1225.86 C600.953,-1158 652.744,-1104.42 718.822,-1104.42 Z M1015.28,-1104.42 C1081.36,-1104.42 1133.15,-1159.79 1133.15,-1225.86 C1133.15,-1293.73 1081.36,-1347.3 1015.28,-1347.3 C949.203,-1347.3 897.412,-1291.94 897.412,-1225.86 C897.412,-1158 949.203,-1104.42 1015.28,-1104.42 Z M1151.01,-129.325 L1363.53,-129.325 L1363.53,-315.058 L1151.01,-315.058 L1151.01,-129.325 Z M1343.89,-129.325 L1829.65,-129.325 L1829.65,-968.695 L1593.91,-968.695 L1593.91,-315.058 L1343.89,-315.058 L1343.89,-129.325 Z M1826.08,-1104.42 C1892.15,-1104.42 1943.95,-1159.79 1943.95,-1225.86 C1943.95,-1293.73 1892.15,-1347.3 1826.08,-1347.3 C1760,-1347.3 1708.21,-1291.94 1708.21,-1225.86 C1708.21,-1158 1760,-1104.42 1826.08,-1104.42 Z M1529.62,-1104.42 C1597.48,-1104.42 1649.27,-1159.79 1649.27,-1225.86 C1649.27,-1293.73 1597.48,-1347.3 1529.62,-1347.3 C1463.54,-1347.3 1411.75,-1291.94 1411.75,-1225.86 C1411.75,-1158 1463.54,-1104.42 1529.62,-1104.42 Z " fill="#000000" fill-opacity="1.00" />				<path d="M-49.3656,-1104.42 C-29.7208,-1079.42 9.56888,-1063.35 41.715,-1063.35 C156.012,-1063.35 214.947,-1143.71 198.874,-1247.29 L182.801,-1347.3 L75.6469,-1333.02 L91.72,-1225.86 C97.0777,-1186.57 86.3623,-1158 48.8585,-1158 C25.6419,-1158 9.56888,-1177.64 4.21119,-1206.22 L-11.8618,-1308.01 L-119.015,-1290.16 L-102.942,-1190.15 C-99.3706,-1156.21 -115.444,-1133 -145.804,-1133 C-165.449,-1133 -179.736,-1147.28 -185.094,-1175.86 L-199.381,-1275.87 L-306.534,-1258.01 L-292.247,-1158 C-279.746,-1070.49 -231.527,-1034.77 -174.378,-1034.77 C-124.373,-1034.77 -72.5822,-1065.13 -49.3656,-1104.42 Z " fill="#000000" fill-opacity="1.00" />				<path d="M-302.939,-1310.41 L164.521,-1396.76 L156.478,-1464.82 L-310.983,-1378.47 L-302.939,-1310.41 Z " fill="#000000" fill-opacity="1.00" />				<path d="M-1359.38,891.395 L-1359.38,780.508 L-1838.89,780.508 L-1838.89,891.395 L-1664.07,891.395 L-1664.07,1454.83 L-1534.2,1454.83 L-1534.2,891.395 L-1359.38,891.395 Z M-867.542,1450.83 L-876.533,1349.93 C-893.516,1354.93 -912.497,1356.92 -933.475,1356.92 C-977.431,1356.92 -992.416,1338.94 -992.416,1275.01 L-992.416,1057.23 L-871.538,1057.23 L-871.538,958.328 L-992.416,958.328 L-992.416,771.517 L-1119.29,805.482 L-1119.29,958.328 L-1205.2,958.328 L-1205.2,1057.23 L-1119.29,1057.23 L-1119.29,1308.97 C-1119.29,1424.86 -1085.32,1464.82 -975.433,1464.82 C-940.468,1464.82 -899.51,1458.82 -867.542,1450.83 Z M-246.837,1454.83 C-249.834,1413.87 -250.833,1366.91 -250.833,1326.95 L-250.833,1122.16 C-250.833,1011.27 -296.786,947.339 -450.631,947.339 C-517.563,947.339 -588.491,961.325 -638.441,981.304 L-617.462,1079.21 C-573.506,1060.22 -512.568,1045.24 -467.614,1045.24 C-401.68,1045.24 -378.704,1072.21 -378.704,1132.15 L-378.704,1150.13 C-552.528,1150.13 -665.413,1205.08 -665.413,1322.96 C-665.413,1403.88 -613.466,1464.82 -523.557,1464.82 C-449.632,1464.82 -388.693,1425.85 -364.718,1369.91 L-363.719,1370.91 C-367.715,1396.88 -368.714,1425.85 -368.714,1454.83 L-246.837,1454.83 Z M-378.704,1247.04 C-378.704,1306.97 -420.661,1366.91 -482.598,1366.91 C-519.561,1366.91 -542.538,1340.94 -542.538,1308.97 C-542.538,1266.02 -507.573,1234.05 -378.704,1234.05 L-378.704,1247.04 Z M475.765,1181.1 C475.765,1034.25 411.83,948.338 292.95,948.338 C224.02,948.338 168.076,982.303 143.102,1036.25 L142.103,1036.25 C147.098,1010.28 150.095,969.317 150.095,939.347 L150.095,725.563 L22.2241,725.563 L22.2241,1440.84 C79.1665,1456.82 135.11,1464.82 207.037,1464.82 C377.864,1464.82 475.765,1348.93 475.765,1181.1 Z M341.901,1194.09 C341.901,1316.96 288.954,1362.92 217.027,1362.92 C189.055,1362.92 168.076,1359.92 150.095,1353.93 L150.095,1214.07 C150.095,1131.15 190.054,1054.23 256.987,1054.23 C314.928,1054.23 341.901,1101.18 341.901,1194.09 Z M1167.4,1181.1 C1167.4,1034.25 1103.46,948.338 984.584,948.338 C915.653,948.338 859.71,982.303 834.735,1036.25 L833.736,1036.25 C838.731,1010.28 841.728,969.317 841.728,939.347 L841.728,725.563 L713.858,725.563 L713.858,1440.84 C770.8,1456.82 826.743,1464.82 898.671,1464.82 C1069.5,1464.82 1167.4,1348.93 1167.4,1181.1 Z M1033.53,1194.09 C1033.53,1316.96 980.588,1362.92 908.66,1362.92 C880.689,1362.92 859.71,1359.92 841.728,1353.93 L841.728,1214.07 C841.728,1131.15 881.688,1054.23 948.62,1054.23 C1006.56,1054.23 1033.53,1101.18 1033.53,1194.09 Z M1793.1,1454.83 C1790.1,1413.87 1789.1,1366.91 1789.1,1326.95 L1789.1,1122.16 C1789.1,1011.27 1743.15,947.339 1589.3,947.339 C1522.37,947.339 1451.44,961.325 1401.5,981.304 L1422.47,1079.21 C1466.43,1060.22 1527.37,1045.24 1572.32,1045.24 C1638.26,1045.24 1661.23,1072.21 1661.23,1132.15 L1661.23,1150.13 C1487.41,1150.13 1374.52,1205.08 1374.52,1322.96 C1374.52,1403.88 1426.47,1464.82 1516.38,1464.82 C1590.3,1464.82 1651.24,1425.85 1675.22,1369.91 L1676.22,1370.91 C1672.22,1396.88 1671.22,1425.85 1671.22,1454.83 L1793.1,1454.83 Z M1661.23,1247.04 C1661.23,1306.97 1619.27,1366.91 1557.34,1366.91 C1520.37,1366.91 1497.4,1340.94 1497.4,1308.97 C1497.4,1266.02 1532.36,1234.05 1661.23,1234.05 L1661.23,1247.04 Z " fill="#000000" fill-opacity="1.00" />			</g>		</g>	</svg>